<svg width="17" height="16" viewBox="0 0 17 16" fill="none" xmlns="http://www.w3.org/2000/svg">
<path d="M13.4339 4.99438C13.29 4.99438 13.1519 5.05155 13.0502 5.1533C12.9484 5.25506 12.8913 5.39307 12.8913 5.53697V14.1963H4.08516V5.53697C4.08516 5.39307 4.028 5.25506 3.92624 5.1533C3.82449 5.05155 3.68648 4.99438 3.54258 4.99438C3.39868 4.99438 3.26067 5.05155 3.15892 5.1533C3.05716 5.25506 3 5.39307 3 5.53697V14.7389C3 14.8828 3.05716 15.0208 3.15892 15.1225C3.26067 15.2243 3.39868 15.2815 3.54258 15.2815H13.4339C13.5778 15.2815 13.7158 15.2243 13.8175 15.1225C13.9193 15.0208 13.9764 14.8828 13.9764 14.7389V5.53697C13.9764 5.39307 13.9193 5.25506 13.8175 5.1533C13.7158 5.05155 13.5778 4.99438 13.4339 4.99438Z" fill="white" stroke="white" stroke-width="0.5"/>
<path d="M15.8717 6.26102L8.87778 1.10649C8.78435 1.03733 8.67118 1 8.55494 1C8.4387 1 8.32553 1.03733 8.2321 1.10649L1.22195 6.26102C1.16441 6.30324 1.11575 6.35638 1.07875 6.4174C1.04175 6.47842 1.01713 6.54613 1.0063 6.61667C0.995465 6.68721 0.998631 6.75919 1.01562 6.8285C1.0326 6.89781 1.06307 6.9631 1.10529 7.02064C1.14751 7.07818 1.20064 7.12683 1.26167 7.16384C1.32269 7.20084 1.3904 7.22546 1.46094 7.23629C1.53147 7.24712 1.60345 7.24395 1.67277 7.22697C1.74208 7.20998 1.80737 7.17951 1.86491 7.13729L8.5468 2.2215L15.2206 7.13729C15.3368 7.22364 15.4825 7.26028 15.6257 7.23917C15.7689 7.21805 15.8979 7.14091 15.9842 7.02471C16.0706 6.90851 16.1072 6.76277 16.0861 6.61955C16.065 6.47633 15.9879 6.34737 15.8717 6.26102Z" fill="white" stroke="white" stroke-width="0.5"/>
</svg>
