<svg width="127" height="33" viewBox="0 0 127 33" fill="none" xmlns="http://www.w3.org/2000/svg">
<path d="M33.9274 16.6655C33.9274 25.6868 26.4265 33 17.1736 33C7.92074 33 0.4198 25.6868 0.4198 16.6655C0.4198 7.64425 7.92074 0.331055 17.1736 0.331055C26.4265 0.331055 33.9274 7.64425 33.9274 16.6655Z" fill="#F2C744"/>
<path d="M22.2895 7.66987C23.3028 7.46276 24.2718 7.43392 25.1965 7.58333C26.1178 7.71731 26.9553 8.03765 27.7088 8.54433C28.4749 9.03235 29.1333 9.71157 29.6841 10.582C30.2316 11.437 30.6398 12.4897 30.9086 13.74C31.2571 15.3608 31.2138 16.812 30.7786 18.0934C30.3434 19.3749 29.4555 20.5877 28.1148 21.732L25.2633 24.1519C25.7383 24.0548 26.1853 24.0198 26.6043 24.047C27.0425 24.0863 27.4824 24.1334 27.9239 24.1882C28.3654 24.243 28.8195 24.2791 29.286 24.2965C29.7559 24.3294 30.26 24.2908 30.7983 24.1808C31.115 24.1161 31.4358 23.9941 31.7609 23.8149C32.1051 23.6478 32.4124 23.4239 32.6825 23.143L33.8711 24.5197C33.4875 24.8881 33.0415 25.1968 32.5331 25.4458C32.0405 25.6915 31.5646 25.8613 31.1054 25.9551C30.5513 26.0684 29.9806 26.1045 29.3932 26.0634C28.825 26.0345 28.2519 25.9824 27.6737 25.9072C27.0989 25.8474 26.5336 25.7938 25.978 25.7462C25.4256 25.7141 24.8882 25.7514 24.3657 25.8582C23.9541 25.9423 23.5557 26.0882 23.1706 26.2958C22.8013 26.5002 22.4358 26.7603 22.0739 27.0759L20.8279 25.6627L24.0422 22.8544C23.1765 22.9025 22.3555 22.8124 21.5792 22.5843C20.8154 22.3376 20.1155 21.965 19.4794 21.4665C18.8558 20.9494 18.3086 20.2877 17.8377 19.4815C17.3827 18.6721 17.0373 17.7194 16.8017 16.6234C16.5394 15.4039 16.4908 14.2938 16.6558 13.2932C16.8175 12.2772 17.147 11.388 17.6442 10.6256C18.1414 9.86331 18.7827 9.23268 19.5679 8.73376C20.369 8.23161 21.2762 7.87698 22.2895 7.66987ZM19.1766 16.138C19.389 17.1259 19.6857 17.9677 20.0667 18.6633C20.4443 19.3435 20.8842 19.8902 21.3862 20.3032C21.9041 20.7131 22.4666 20.9848 23.0739 21.1186C23.6811 21.2523 24.3093 21.2528 24.9585 21.1201C25.6076 20.9874 26.1985 20.7377 26.7312 20.371C27.2606 19.9889 27.6939 19.5055 28.031 18.9209C28.3648 18.3209 28.5803 17.6323 28.6776 16.855C28.7875 16.059 28.7395 15.1825 28.5337 14.2254C28.3146 13.2066 28.0004 12.3604 27.5911 11.6866C27.1976 11.0096 26.7374 10.4833 26.2103 10.1076C25.6799 9.71643 25.0986 9.47266 24.4663 9.37629C23.8465 9.26124 23.2121 9.27006 22.5629 9.40274C21.9138 9.53542 21.3291 9.77578 20.8089 10.1238C20.2888 10.4719 19.8743 10.9272 19.5655 11.4899C19.2568 12.0526 19.0616 12.7209 18.9802 13.495C18.8987 14.269 18.9641 15.15 19.1766 16.138Z" fill="white"/>
<path d="M36.7028 11.5486H38.34V22.7223H36.7028V11.5486Z" fill="white"/>
<path d="M46.8956 22.85C45.7495 22.85 44.7126 22.6052 43.7849 22.1157C42.868 21.6156 42.1476 20.9345 41.6237 20.0725C41.0998 19.1999 40.8379 18.2209 40.8379 17.1355C40.8379 16.05 41.0998 15.0763 41.6237 14.2144C42.1476 13.3417 42.8735 12.6607 43.8012 12.1712C44.729 11.671 45.7659 11.4209 46.9119 11.4209C47.8069 11.4209 48.6256 11.5699 49.3678 11.8679C50.11 12.1552 50.743 12.5862 51.2669 13.1608L50.2027 14.1665C49.3405 13.2832 48.2654 12.8416 46.9774 12.8416C46.1261 12.8416 45.3566 13.0278 44.669 13.4003C43.9813 13.7727 43.441 14.2888 43.0481 14.9486C42.6661 15.5978 42.4751 16.3267 42.4751 17.1355C42.4751 17.9442 42.6661 18.6785 43.0481 19.3383C43.441 19.9874 43.9813 20.4982 44.669 20.8707C45.3566 21.2431 46.1261 21.4293 46.9774 21.4293C48.2545 21.4293 49.3296 20.9824 50.2027 20.0885L51.2669 21.0941C50.743 21.6688 50.1045 22.1051 49.3514 22.403C48.6092 22.701 47.7906 22.85 46.8956 22.85Z" fill="white"/>
<path d="M57.3354 17.758L55.2397 19.8331V22.7223H53.6025V11.5486H55.2397V17.7899L61.4611 11.5486H63.3276L58.4323 16.5768L63.6386 22.7223H61.7231L57.3354 17.758Z" fill="white"/>
<path d="M70.0788 22.85C68.9327 22.85 67.8958 22.6052 66.9681 22.1157C66.0512 21.6156 65.3308 20.9345 64.8069 20.0725C64.283 19.1999 64.0211 18.2209 64.0211 17.1355C64.0211 16.05 64.283 15.0763 64.8069 14.2144C65.3308 13.3417 66.0567 12.6607 66.9844 12.1712C67.9122 11.671 68.9491 11.4209 70.0951 11.4209C70.9901 11.4209 71.8087 11.5699 72.5509 11.8679C73.2932 12.1552 73.9262 12.5862 74.4501 13.1608L73.3859 14.1665C72.5237 13.2832 71.4486 12.8416 70.1606 12.8416C69.3093 12.8416 68.5398 13.0278 67.8521 13.4003C67.1645 13.7727 66.6242 14.2888 66.2313 14.9486C65.8493 15.5978 65.6583 16.3267 65.6583 17.1355C65.6583 17.9442 65.8493 18.6785 66.2313 19.3383C66.6242 19.9874 67.1645 20.4982 67.8521 20.8707C68.5398 21.2431 69.3093 21.4293 70.1606 21.4293C71.4376 21.4293 72.5127 20.9824 73.3859 20.0885L74.4501 21.0941C73.9262 21.6688 73.2877 22.1051 72.5346 22.403C71.7924 22.701 70.9738 22.85 70.0788 22.85Z" fill="white"/>
<path d="M84.4479 22.7223L81.9757 19.2904C81.6701 19.3117 81.4299 19.3223 81.2553 19.3223H78.4229V22.7223H76.7857V11.5486H81.2553C82.7397 11.5486 83.9076 11.8945 84.7589 12.5862C85.6103 13.2779 86.036 14.2303 86.036 15.4435C86.036 16.3054 85.8177 17.0397 85.3811 17.6463C84.9445 18.2528 84.3223 18.6945 83.5146 18.9711L86.2324 22.7223H84.4479ZM81.2062 17.9655C82.2431 17.9655 83.0344 17.7474 83.5801 17.3111C84.1259 16.8747 84.3987 16.2522 84.3987 15.4435C84.3987 14.6347 84.1259 14.0175 83.5801 13.5918C83.0344 13.1555 82.2431 12.9374 81.2062 12.9374H78.4229V17.9655H81.2062Z" fill="white"/>
<path d="M96.9981 21.3336V22.7223H88.6811V11.5486H96.7689V12.9374H90.3183V16.3693H96.0649V17.7261H90.3183V21.3336H96.9981Z" fill="white"/>
<path d="M99.6491 11.5486H104.479C105.69 11.5486 106.766 11.7828 107.704 12.251C108.643 12.7192 109.369 13.379 109.882 14.2303C110.406 15.071 110.668 16.0394 110.668 17.1355C110.668 18.2315 110.406 19.2052 109.882 20.0566C109.369 20.8973 108.643 21.5517 107.704 22.0199C106.766 22.4882 105.69 22.7223 104.479 22.7223H99.6491V11.5486ZM104.381 21.3336C105.308 21.3336 106.122 21.158 106.82 20.8068C107.53 20.4556 108.075 19.9661 108.457 19.3383C108.839 18.6998 109.03 17.9655 109.03 17.1355C109.03 16.3054 108.839 15.5765 108.457 14.9486C108.075 14.3101 107.53 13.8153 106.82 13.4641C106.122 13.113 105.308 12.9374 104.381 12.9374H101.286V21.3336H104.381Z" fill="white"/>
<path d="M113.175 11.5486H114.813V22.7223H113.175V11.5486Z" fill="white"/>
<path d="M120.519 12.9374H116.59V11.5486H126.07V12.9374H122.14V22.7223H120.519V12.9374Z" fill="white"/>
<path d="M116.567 7.2219C116.567 8.41726 115.573 9.38629 114.347 9.38629C113.121 9.38629 112.127 8.41726 112.127 7.2219C112.127 6.02655 113.121 5.05752 114.347 5.05752C115.573 5.05752 116.567 6.02655 116.567 7.2219Z" fill="#F2C744"/>
<path d="M50.4256 27.5654C50.5919 27.3012 50.8034 27.1043 51.0601 26.9745C51.3215 26.8402 51.6376 26.773 52.0083 26.773L51.9441 27.1136L51.83 27.1066C51.407 27.1066 51.0601 27.2294 50.7892 27.475C50.5183 27.7206 50.3329 28.0844 50.2331 28.5663L49.8481 30.4291H49.4916L50.2331 26.8008H50.5824L50.4256 27.5654Z" fill="#F2C744"/>
<path d="M56.2565 26.8008L55.515 30.4291H55.1728L55.3154 29.7201C55.1348 29.9518 54.9091 30.1325 54.6381 30.2623C54.372 30.392 54.0749 30.4569 53.747 30.4569C53.2622 30.4569 52.8725 30.3225 52.5778 30.0538C52.2879 29.7804 52.1429 29.412 52.1429 28.9486C52.1429 28.5362 52.2332 28.1655 52.4138 27.8364C52.5944 27.5028 52.8439 27.2433 53.1624 27.058C53.4856 26.868 53.8468 26.773 54.246 26.773C54.631 26.773 54.9495 26.8541 55.2014 27.0162C55.4533 27.1784 55.6244 27.4078 55.7147 27.7044L55.9 26.8008H56.2565ZM53.8183 30.1441C54.151 30.1441 54.448 30.0653 54.7094 29.9078C54.9756 29.7502 55.1847 29.5325 55.3368 29.2544C55.4889 28.9718 55.5649 28.6543 55.5649 28.3022C55.5649 27.9175 55.4485 27.6187 55.2156 27.4055C54.9875 27.1923 54.6643 27.0858 54.246 27.0858C53.9133 27.0858 53.6139 27.1668 53.3477 27.329C53.0863 27.4866 52.8796 27.7067 52.7275 27.9894C52.5754 28.2674 52.4994 28.5802 52.4994 28.9277C52.4994 29.3123 52.6134 29.6112 52.8416 29.8244C53.0745 30.0375 53.4 30.1441 53.8183 30.1441Z" fill="#F2C744"/>
<path d="M59.5203 26.773C60.0051 26.773 60.3948 26.9097 60.6895 27.1831C60.9842 27.4518 61.1315 27.8179 61.1315 28.2813C61.1315 28.6937 61.0388 29.0667 60.8535 29.4004C60.6729 29.7294 60.421 29.9889 60.0978 30.1789C59.7793 30.3642 59.4205 30.4569 59.0213 30.4569C58.6363 30.4569 58.3178 30.3781 58.0659 30.2206C57.8188 30.0584 57.6477 29.8267 57.5526 29.5255L57.0892 31.7776H56.7328L57.7522 26.8008H58.1016L57.959 27.5028C58.1396 27.2711 58.363 27.0927 58.6291 26.9676C58.8953 26.8378 59.1924 26.773 59.5203 26.773ZM59.0284 30.1441C59.3611 30.1441 59.6581 30.0653 59.9195 29.9078C60.1857 29.7456 60.3925 29.5255 60.5398 29.2475C60.6919 28.9694 60.7679 28.6543 60.7679 28.3022C60.7679 27.9175 60.6515 27.6187 60.4186 27.4055C60.1905 27.1923 59.8673 27.0858 59.449 27.0858C59.1163 27.0858 58.8169 27.1645 58.5507 27.3221C58.2893 27.4796 58.0826 27.6997 57.9305 27.9824C57.7784 28.2604 57.7023 28.5756 57.7023 28.9277C57.7023 29.3123 57.8188 29.6112 58.0517 29.8244C58.2846 30.0375 58.6101 30.1441 59.0284 30.1441Z" fill="#F2C744"/>
<path d="M62.5631 26.8008H62.9196L62.1781 30.4291H61.8217L62.5631 26.8008ZM62.9624 25.918C62.8863 25.918 62.8221 25.8925 62.7699 25.8416C62.7176 25.7906 62.6914 25.7303 62.6914 25.6608C62.6914 25.5774 62.72 25.5056 62.777 25.4454C62.8388 25.3851 62.9148 25.355 63.0051 25.355C63.0812 25.355 63.1453 25.3805 63.1976 25.4315C63.2547 25.4824 63.2832 25.5427 63.2832 25.6122C63.2832 25.7002 63.2523 25.7744 63.1905 25.8346C63.1287 25.8902 63.0527 25.918 62.9624 25.918Z" fill="#F2C744"/>
<path d="M68.0508 25.2716L66.9957 30.4291H66.6535L66.7961 29.7201C66.6155 29.9518 66.3897 30.1325 66.1188 30.2623C65.8526 30.392 65.5556 30.4569 65.2276 30.4569C64.7428 30.4569 64.3531 30.3225 64.0584 30.0538C63.7685 29.7804 63.6235 29.412 63.6235 28.9486C63.6235 28.5362 63.7138 28.1655 63.8945 27.8364C64.0751 27.5028 64.3246 27.2433 64.643 27.058C64.9662 26.868 65.3274 26.773 65.7267 26.773C66.1117 26.773 66.4301 26.8541 66.682 27.0162C66.9339 27.1784 67.105 27.4101 67.1953 27.7113L67.6944 25.2716H68.0508ZM65.2989 30.1441C65.6316 30.1441 65.9287 30.0653 66.1901 29.9078C66.4562 29.7502 66.6654 29.5325 66.8175 29.2544C66.9696 28.9718 67.0456 28.6543 67.0456 28.3022C67.0456 27.9175 66.9292 27.6187 66.6963 27.4055C66.4681 27.1923 66.1449 27.0858 65.7267 27.0858C65.394 27.0858 65.0946 27.1668 64.8284 27.329C64.567 27.4866 64.3602 27.7067 64.2081 27.9894C64.0561 28.2674 63.98 28.5802 63.98 28.9277C63.98 29.3123 64.0941 29.6112 64.3222 29.8244C64.5551 30.0375 64.8807 30.1441 65.2989 30.1441Z" fill="#F2C744"/>
<path d="M74.3791 26.8008L73.6376 30.4291H73.2954L73.438 29.7201C73.2574 29.9518 73.0316 30.1325 72.7607 30.2623C72.4946 30.392 72.1975 30.4569 71.8696 30.4569C71.3848 30.4569 70.995 30.3225 70.7004 30.0538C70.4104 29.7804 70.2655 29.412 70.2655 28.9486C70.2655 28.5362 70.3558 28.1655 70.5364 27.8364C70.717 27.5028 70.9665 27.2433 71.285 27.058C71.6082 26.868 71.9694 26.773 72.3686 26.773C72.7536 26.773 73.072 26.8541 73.3239 27.0162C73.5758 27.1784 73.7469 27.4078 73.8372 27.7044L74.0226 26.8008H74.3791ZM71.9409 30.1441C72.2736 30.1441 72.5706 30.0653 72.832 29.9078C73.0982 29.7502 73.3073 29.5325 73.4594 29.2544C73.6115 28.9718 73.6875 28.6543 73.6875 28.3022C73.6875 27.9175 73.5711 27.6187 73.3382 27.4055C73.1101 27.1923 72.7869 27.0858 72.3686 27.0858C72.0359 27.0858 71.7365 27.1668 71.4703 27.329C71.2089 27.4866 71.0022 27.7067 70.8501 27.9894C70.698 28.2674 70.6219 28.5802 70.6219 28.9277C70.6219 29.3123 70.736 29.6112 70.9641 29.8244C71.197 30.0375 71.5226 30.1441 71.9409 30.1441Z" fill="#F2C744"/>
<path d="M77.6215 26.773C78.0445 26.773 78.3701 26.8772 78.5982 27.0858C78.8263 27.2896 78.9404 27.5723 78.9404 27.9338C78.9404 28.0589 78.9262 28.1909 78.8976 28.33L78.4699 30.4291H78.1134L78.5412 28.33C78.5649 28.2234 78.5768 28.1075 78.5768 27.9824C78.5768 27.6951 78.4865 27.475 78.3059 27.3221C78.1301 27.1645 77.871 27.0858 77.5288 27.0858C77.1011 27.0858 76.7446 27.2039 76.4594 27.4402C76.1743 27.6719 75.9865 28.0102 75.8962 28.4551L75.4898 30.4291H75.1334L75.8748 26.8008H76.2242L76.0816 27.4889C76.2574 27.2479 76.4761 27.0695 76.7375 26.9537C77.0036 26.8332 77.2983 26.773 77.6215 26.773Z" fill="#F2C744"/>
<path d="M84.3075 25.2716L83.2524 30.4291H82.9102L83.0528 29.7201C82.8722 29.9518 82.6464 30.1325 82.3755 30.2623C82.1093 30.392 81.8123 30.4569 81.4843 30.4569C80.9996 30.4569 80.6098 30.3225 80.3151 30.0538C80.0252 29.7804 79.8803 29.412 79.8803 28.9486C79.8803 28.5362 79.9706 28.1655 80.1512 27.8364C80.3318 27.5028 80.5813 27.2433 80.8997 27.058C81.2229 26.868 81.5842 26.773 81.9834 26.773C82.3684 26.773 82.6868 26.8541 82.9387 27.0162C83.1906 27.1784 83.3617 27.4101 83.452 27.7113L83.9511 25.2716H84.3075ZM81.5556 30.1441C81.8883 30.1441 82.1854 30.0653 82.4468 29.9078C82.713 29.7502 82.9221 29.5325 83.0742 29.2544C83.2263 28.9718 83.3023 28.6543 83.3023 28.3022C83.3023 27.9175 83.1859 27.6187 82.953 27.4055C82.7248 27.1923 82.4016 27.0858 81.9834 27.0858C81.6507 27.0858 81.3513 27.1668 81.0851 27.329C80.8237 27.4866 80.6169 27.7067 80.4649 27.9894C80.3128 28.2674 80.2367 28.5802 80.2367 28.9277C80.2367 29.3123 80.3508 29.6112 80.5789 29.8244C80.8118 30.0375 81.1374 30.1441 81.5556 30.1441Z" fill="#F2C744"/>
<path d="M86.8858 28.6914C86.8763 28.7933 86.8715 28.8698 86.8715 28.9208C86.8715 29.3147 86.988 29.6182 87.2209 29.8313C87.4537 30.0399 87.7959 30.1441 88.2475 30.1441C88.5089 30.1441 88.7489 30.1024 88.9675 30.019C89.1909 29.931 89.3763 29.8105 89.5236 29.6576L89.6876 29.9008C89.5212 30.0769 89.3074 30.2136 89.0459 30.3109C88.7893 30.4083 88.5136 30.4569 88.219 30.4569C87.6914 30.4569 87.2755 30.3225 86.9713 30.0538C86.6719 29.785 86.5222 29.412 86.5222 28.9347C86.5222 28.5269 86.6101 28.1585 86.786 27.8295C86.9618 27.5005 87.2042 27.2433 87.5132 27.058C87.8221 26.868 88.169 26.773 88.554 26.773C89.0388 26.773 89.4238 26.9074 89.709 27.1761C89.9941 27.4449 90.1367 27.8156 90.1367 28.2883C90.1367 28.3995 90.1225 28.5338 90.0939 28.6914H86.8858ZM88.5469 27.0719C88.1429 27.0719 87.7936 27.1947 87.4989 27.4402C87.209 27.6858 87.0189 28.0125 86.9285 28.4203H89.7945C89.7993 28.3786 89.8016 28.3184 89.8016 28.2396C89.8016 27.8735 89.6876 27.5885 89.4594 27.3846C89.2313 27.1761 88.9271 27.0719 88.5469 27.0719Z" fill="#F2C744"/>
<path d="M94.8966 26.8008L94.1552 30.4291H93.813L93.9556 29.7201C93.775 29.9518 93.5492 30.1325 93.2783 30.2623C93.0121 30.392 92.7151 30.4569 92.3871 30.4569C91.9023 30.4569 91.5126 30.3225 91.2179 30.0538C90.928 29.7804 90.783 29.412 90.783 28.9486C90.783 28.5362 90.8733 28.1655 91.054 27.8364C91.2346 27.5028 91.4841 27.2433 91.8025 27.058C92.1257 26.868 92.4869 26.773 92.8862 26.773C93.2712 26.773 93.5896 26.8541 93.8415 27.0162C94.0934 27.1784 94.2645 27.4078 94.3548 27.7044L94.5402 26.8008H94.8966ZM92.4584 30.1441C92.7911 30.1441 93.0882 30.0653 93.3496 29.9078C93.6157 29.7502 93.8249 29.5325 93.977 29.2544C94.129 28.9718 94.2051 28.6543 94.2051 28.3022C94.2051 27.9175 94.0886 27.6187 93.8558 27.4055C93.6276 27.1923 93.3044 27.0858 92.8862 27.0858C92.5535 27.0858 92.254 27.1668 91.9879 27.329C91.7265 27.4866 91.5197 27.7067 91.3676 27.9894C91.2155 28.2674 91.1395 28.5802 91.1395 28.9277C91.1395 29.3123 91.2536 29.6112 91.4817 29.8244C91.7146 30.0375 92.0402 30.1441 92.4584 30.1441Z" fill="#F2C744"/>
<path d="M96.6704 30.4569C96.3805 30.4569 96.1025 30.4152 95.8363 30.3318C95.5749 30.2438 95.3705 30.1325 95.2232 29.9982L95.4157 29.7271C95.5535 29.8568 95.7365 29.9611 95.9646 30.0399C96.1975 30.114 96.4423 30.1511 96.699 30.1511C97.0839 30.1511 97.381 30.0862 97.5901 29.9565C97.804 29.8221 97.9109 29.6367 97.9109 29.4004C97.9109 29.266 97.8681 29.1594 97.7826 29.0806C97.697 29.0019 97.5925 28.9439 97.4689 28.9069C97.3453 28.8652 97.1742 28.8211 96.9556 28.7748C96.699 28.7238 96.4898 28.6705 96.3282 28.6149C96.1714 28.5593 96.0383 28.4736 95.929 28.3578C95.8197 28.2373 95.765 28.0751 95.765 27.8712C95.765 27.5376 95.9052 27.2711 96.1856 27.0719C96.4708 26.8726 96.8487 26.773 97.3192 26.773C97.5568 26.773 97.7874 26.8054 98.0107 26.8703C98.2341 26.9305 98.4124 27.0162 98.5454 27.1275L98.3815 27.3985C98.2436 27.292 98.0773 27.2132 97.8824 27.1622C97.6923 27.1066 97.4951 27.0788 97.2907 27.0788C96.9295 27.0788 96.6419 27.1483 96.428 27.2873C96.2189 27.4263 96.1143 27.6094 96.1143 27.8364C96.1143 27.9755 96.1571 28.0867 96.2427 28.1701C96.3282 28.2489 96.4352 28.3091 96.5635 28.3508C96.6966 28.3925 96.8724 28.4365 97.0911 28.4829C97.3477 28.5338 97.5521 28.5871 97.7042 28.6427C97.861 28.6937 97.9941 28.7771 98.1034 28.893C98.2127 29.0088 98.2674 29.1664 98.2674 29.3656C98.2674 29.7039 98.1224 29.9704 97.8325 30.165C97.5426 30.3596 97.1552 30.4569 96.6704 30.4569Z" fill="#F2C744"/>
<path d="M102.722 26.8008L99.9412 30.9643C99.732 31.2794 99.5324 31.4972 99.3423 31.6177C99.1569 31.7428 98.9359 31.8054 98.6793 31.8054C98.5082 31.8054 98.3466 31.7776 98.1945 31.722C98.0424 31.6664 97.9236 31.5876 97.838 31.4856L98.0448 31.2285C98.2111 31.4092 98.4345 31.4995 98.7149 31.4995C98.886 31.4995 99.0405 31.4532 99.1783 31.3605C99.3209 31.2678 99.4706 31.1057 99.6275 30.874L99.9412 30.4152L99.0001 26.8008H99.3637L100.198 30.0468L102.351 26.8008H102.722Z" fill="#F2C744"/>
<path d="M105.639 25.2716H105.995L104.94 30.4291H104.583L105.639 25.2716Z" fill="#F2C744"/>
<path d="M108.032 30.4569C107.528 30.4569 107.127 30.3202 106.827 30.0468C106.533 29.7734 106.385 29.4073 106.385 28.9486C106.385 28.5362 106.476 28.1655 106.656 27.8364C106.842 27.5074 107.096 27.2479 107.419 27.058C107.742 26.868 108.108 26.773 108.517 26.773C109.021 26.773 109.42 26.9097 109.715 27.1831C110.014 27.4518 110.164 27.8179 110.164 28.2813C110.164 28.6937 110.071 29.0667 109.886 29.4004C109.705 29.7294 109.453 29.9889 109.13 30.1789C108.807 30.3642 108.441 30.4569 108.032 30.4569ZM108.061 30.1441C108.393 30.1441 108.69 30.0653 108.952 29.9078C109.218 29.7502 109.427 29.5325 109.579 29.2544C109.731 28.9718 109.807 28.6543 109.807 28.3022C109.807 27.9175 109.691 27.6187 109.458 27.4055C109.23 27.1923 108.907 27.0858 108.488 27.0858C108.156 27.0858 107.856 27.1668 107.59 27.329C107.329 27.4866 107.122 27.7067 106.97 27.9894C106.818 28.2674 106.742 28.5802 106.742 28.9277C106.742 29.3123 106.856 29.6112 107.084 29.8244C107.317 30.0375 107.642 30.1441 108.061 30.1441Z" fill="#F2C744"/>
<path d="M114.92 26.8008L114.178 30.4291H113.836L113.979 29.7201C113.798 29.9518 113.572 30.1325 113.302 30.2623C113.035 30.392 112.738 30.4569 112.41 30.4569C111.926 30.4569 111.536 30.3225 111.241 30.0538C110.951 29.7804 110.806 29.412 110.806 28.9486C110.806 28.5362 110.897 28.1655 111.077 27.8364C111.258 27.5028 111.507 27.2433 111.826 27.058C112.149 26.868 112.51 26.773 112.909 26.773C113.294 26.773 113.613 26.8541 113.865 27.0162C114.117 27.1784 114.288 27.4078 114.378 27.7044L114.563 26.8008H114.92ZM112.482 30.1441C112.814 30.1441 113.111 30.0653 113.373 29.9078C113.639 29.7502 113.848 29.5325 114 29.2544C114.152 28.9718 114.228 28.6543 114.228 28.3022C114.228 27.9175 114.112 27.6187 113.879 27.4055C113.651 27.1923 113.328 27.0858 112.909 27.0858C112.577 27.0858 112.277 27.1668 112.011 27.329C111.75 27.4866 111.543 27.7067 111.391 27.9894C111.239 28.2674 111.163 28.5802 111.163 28.9277C111.163 29.3123 111.277 29.6112 111.505 29.8244C111.738 30.0375 112.063 30.1441 112.482 30.1441Z" fill="#F2C744"/>
<path d="M118.162 26.773C118.585 26.773 118.911 26.8772 119.139 27.0858C119.367 27.2896 119.481 27.5723 119.481 27.9338C119.481 28.0589 119.467 28.1909 119.438 28.33L119.011 30.4291H118.654L119.082 28.33C119.106 28.2234 119.118 28.1075 119.118 27.9824C119.118 27.6951 119.027 27.475 118.847 27.3221C118.671 27.1645 118.412 27.0858 118.07 27.0858C117.642 27.0858 117.285 27.2039 117 27.4402C116.715 27.6719 116.527 28.0102 116.437 28.4551L116.031 30.4291H115.674L116.416 26.8008H116.765L116.622 27.4889C116.798 27.2479 117.017 27.0695 117.278 26.9537C117.544 26.8332 117.839 26.773 118.162 26.773Z" fill="#F2C744"/>
<path d="M121.491 30.4569C121.201 30.4569 120.923 30.4152 120.657 30.3318C120.395 30.2438 120.191 30.1325 120.043 29.9982L120.236 29.7271C120.374 29.8568 120.557 29.9611 120.785 30.0399C121.018 30.114 121.262 30.1511 121.519 30.1511C121.904 30.1511 122.201 30.0862 122.41 29.9565C122.624 29.8221 122.731 29.6367 122.731 29.4004C122.731 29.266 122.688 29.1594 122.603 29.0806C122.517 29.0019 122.413 28.9439 122.289 28.9069C122.166 28.8652 121.994 28.8211 121.776 28.7748C121.519 28.7238 121.31 28.6705 121.148 28.6149C120.992 28.5593 120.859 28.4736 120.749 28.3578C120.64 28.2373 120.585 28.0751 120.585 27.8712C120.585 27.5376 120.725 27.2711 121.006 27.0719C121.291 26.8726 121.669 26.773 122.139 26.773C122.377 26.773 122.608 26.8054 122.831 26.8703C123.054 26.9305 123.233 27.0162 123.366 27.1275L123.202 27.3985C123.064 27.292 122.897 27.2132 122.703 27.1622C122.512 27.1066 122.315 27.0788 122.111 27.0788C121.75 27.0788 121.462 27.1483 121.248 27.2873C121.039 27.4263 120.935 27.6094 120.935 27.8364C120.935 27.9755 120.977 28.0867 121.063 28.1701C121.148 28.2489 121.255 28.3091 121.384 28.3508C121.517 28.3925 121.693 28.4365 121.911 28.4829C122.168 28.5338 122.372 28.5871 122.524 28.6427C122.681 28.6937 122.814 28.7771 122.924 28.893C123.033 29.0088 123.088 29.1664 123.088 29.3656C123.088 29.7039 122.943 29.9704 122.653 30.165C122.363 30.3596 121.975 30.4569 121.491 30.4569Z" fill="#F2C744"/>
</svg>
